
<svg xmlns="http://www.w3.org/2000/svg" version="1.1" xmlns:xlink="http://www.w3.org/1999/xlink" preserveAspectRatio="none" x="0px" y="0px" width="1920px" height="1080px" viewBox="0 0 1920 1080">
<defs>
<g id="Layer0_0_MEMBER_0_FILL">
<path fill="#3190FE" stroke="none" d="
M 1073.1 368.75
Q 1067.8 375 1061.55 380.95 1068.5 375.05 1074.25 368.75
L 1073.1 368.75 Z"/>
</g>

<g id="Layer0_0_MEMBER_0_MEMBER_0_FILL">
<path fill="#D99250" stroke="none" d="
M 945.7 412.1
L 945.7 432.2
Q 926.0365234375 436.48828125 912.75 445.4
L 920.7 482.55 963.25 488.1 997.6 481.95 1008.6 442.75
Q 993.111328125 434.02421875 977.4 431.3
L 977.4 413.7
Q 960.4 402.85 945.7 412.1 Z"/>
</g>

<g id="Layer0_0_MEMBER_0_MEMBER_1_MEMBER_0_FILL">
<path fill="#D99250" stroke="none" d="
M 913.2 445.15
Q 913.2 445.1 913.15 445.1
L 913.1 445.1
Q 912.3 445.65 911.55 446.2 909.15 448.05 906.95 450.3 904.7056640625 453.049609375 902.6 455.75 860.808984375 544.433984375 856.9 553.95
L 888.6 559.55 894.8 543 908.7 513.6 914.35 501.7
Q 916.5341796875 497.078515625 918.5 493.05 921.5015625 486.9119140625 924 482.15 921.8123046875 469.4125 919.55 458.9 918.15 451.9 914.45 446.7 913.8 445.9 913.2 445.15 Z"/>
</g>

<g id="Layer0_0_MEMBER_0_MEMBER_1_MEMBER_1_MEMBER_0_FILL">
<path fill="#D99250" stroke="none" d="
M 832.35 676.45
Q 832.9 672.45 835.05 673 836.8 688.85 835.05 701.95 834.8 708.1 839.75 704.6 844.6 690.45 842.5 672.95 844.6 690.45 839.75 704.6 842 706.8 846.15 704.6 851.55 690.9 850.95 672.6 851.55 690.9 846.15 704.6 847.9 706.35 850.05 704.6 862.75 684.75 856.2 647.95 855.9 646.25 855.55 644.55 855.65 643.95 855.8 643.4
L 836.4 643.4
Q 834.45 645.55 832.9 647.95 829.4 653.35 827.65 660 825 670.2 825.1 681.1 825.15 692 828.15 691.75 831.25 691.45 831.55 685.95 831.8 680.4 832.35 676.45 Z"/>
</g>

<g id="Layer0_0_MEMBER_0_MEMBER_1_MEMBER_1_MEMBER_1_FILL">
<path fill="#D99250" stroke="none" d="
M 829.1 552.1
L 831.5 565.1 837.2 642.5
Q 836.8 642.95 836.4 643.4
L 855.8 643.4
Q 856.15 641.3 856.55 639.25 856.75 637.9 857 636.55 858.7 626.85 859.9 617.8 860.1 616 860.35 614.2 864.6 580.1 861.9 555.05 861.6 553.55 861.3 552.1
L 829.1 552.1 Z"/>
</g>

<g id="Layer0_0_MEMBER_0_MEMBER_2_MEMBER_0_FILL">
<path fill="#D99250" stroke="none" d="
M 1007.6 442.25
Q 1007.55 442.25 1007.55 442.3 1006.9 443.05 1006.2 443.85 1002.3 448.85 1000.45 455.75 996.262890625 471.69375 1003.4 498.1
L 1028.9 559.9 1060.8 555.85
Q 1058.29375 548.7404296875 1025.05 464.55 1019.8408203125 456.4125 1013.5 447.75 1011.4 445.4 1009.1 443.45 1008.35 442.85 1007.65 442.3
L 1007.6 442.25 Z"/>
</g>

<g id="Layer0_0_MEMBER_0_MEMBER_2_MEMBER_1_MEMBER_0_FILL">
<path fill="#D99250" stroke="none" d="
M 832.35 676.45
Q 832.9 672.45 835.05 673 836.8 688.85 835.05 701.95 834.8 708.1 839.75 704.6 844.6 690.45 842.5 672.95 844.6 690.45 839.75 704.6 842 706.8 846.15 704.6 851.55 690.9 850.95 672.6 851.55 690.9 846.15 704.6 847.9 706.35 850.05 704.6 862.75 684.75 856.2 647.95 855.9 646.25 855.55 644.55 855.65 643.95 855.8 643.4
L 836.4 643.4
Q 834.45 645.55 832.9 647.95 829.4 653.35 827.65 660 825 670.2 825.1 681.1 825.15 692 828.15 691.75 831.25 691.45 831.55 685.95 831.8 680.4 832.35 676.45 Z"/>
</g>

<g id="Layer0_0_MEMBER_0_MEMBER_2_MEMBER_1_MEMBER_1_FILL">
<path fill="#D99250" stroke="none" d="
M 829.1 552.1
L 831.5 565.1 837.2 642.5
Q 836.8 642.95 836.4 643.4
L 855.8 643.4
Q 856.15 641.3 856.55 639.25 856.75 637.9 857 636.55 858.7 626.85 859.9 617.8 860.1 616 860.35 614.2 864.6 580.1 861.9 555.05 861.6 553.55 861.3 552.1
L 829.1 552.1 Z"/>
</g>

<g id="Layer0_0_MEMBER_0_MEMBER_3_FILL">
<path fill="#D99250" stroke="none" d="
M 958.55 614.95
L 968.05 758.7
Q 987.925 764.0375 1007.8 758.7
L 1015.45 599.5
Q 978.90234375 596.0005859375 973.6 614.15 973.4005859375 614.831640625 973.2 615.5 968.09296875 612.7671875 958.55 614.95 Z"/>
</g>

<g id="Layer0_0_MEMBER_0_MEMBER_4_FILL">
<path fill="#D99250" stroke="none" d="
M 960 657.4
L 959.95 655.1 959.95 657.35
Q 959.9771484375 657.3771484375 960 657.4
M 902.95 603.65
Q 902.60625 607.80625 902.3 612.2
L 911.25 757.75 951.15 757.75 960 608.5 902.95 603.65 Z"/>
</g>

<g id="Layer0_0_MEMBER_0_MEMBER_5_MEMBER_0_MEMBER_0_FILL">
<path fill="#D99250" stroke="none" d="
M 951.15 757.75
L 911.25 757.75 919.75 869.3 883.85 899.55 878.25 902.9
Q 874.36875 906.8193359375 878.35 910.5 877.9408203125 908.6630859375 879.2 906.65 883.65625 905.65625 886.2 902.75 883.65625 905.65625 879.2 906.65 877.9408203125 908.6630859375 878.35 910.5 878.8685546875 912.6888671875 882.05 915.1 880.75078125 912.88671875 882.35 909.25 887.48203125 908.4203125 891.95 904.15 887.48203125 908.4203125 882.35 909.25 880.75078125 912.88671875 882.05 915.1 883.254296875 917.1509765625 888.8 917.8 887.49765625 916.04765625 887.7 912.5 893.075 910.2134765625 898.45 906 893.075 910.2134765625 887.7 912.5 887.49765625 916.04765625 888.8 917.8 890.8265625 920.491015625 896.25 919.15 893.8693359375 917.077734375 893.25 913.25 898.625 911.546875 904 907.5 898.625 911.546875 893.25 913.25 893.8693359375 917.077734375 896.25 919.15 898.3478515625 920.980859375 901.75 921.5 907.23203125 922.16796875 911.5 918.5
L 912.85 916.4
Q 928.207421875 916.0787109375 937.5 902.25
L 949.25 899
Q 954.7630859375 895.79140625 954.25 890
L 950.15 865.95 951.15 757.75 Z"/>
</g>

<g id="Layer0_0_MEMBER_0_MEMBER_6_FILL">
<path fill="#DBEFE7" stroke="none" d="
M 936.65 433.85
Q 936.3517578125 433.8927734375 936.15 434 935.9501953125 434.1466796875 932.15 435.3 928.3451171875 436.4646484375 925.1 438.35 927.046484375 476.4095703125 910.1 508.8 902.64765625 555.40625 901.6 600.2 901.2 608.7 918.7 613.75 934.15 618.15 957.85 618.55 980.75 618.95 998.15 615.45 1016.95 611.7 1018.75 605.25 1020.9775390625 564.6830078125 1012.65 508.8 998.96484375 478.3244140625 999.1 437.05 993.5462890625 434.7109375 986.9 433.1 981.2416015625 459.437109375 961.25 458.95 941.303125 458.5115234375 936.65 433.85 Z"/>
</g>

<g id="Layer0_0_MEMBER_0_MEMBER_7_FILL">
<path fill="#98D5DF" stroke="none" d="
M 901.55 605.45
Q 901.3984375 607.8287109375 901.4 610.65 959.749609375 627.570703125 1017.9 610.7 1018.135546875 606.4236328125 1018.1 602.65 959.85 619.5908203125 901.6 602.65
L 901.55 605.45 Z"/>

<path fill="#B9E4EB" stroke="none" d="
M 901.4 610.65
Q 901.387890625 622.246484375 904.3 641.3
L 956.05 670.5
Q 959.8416015625 670.9529296875 963.55 670.85
L 1013.6 641.85
Q 1013.781640625 641.6544921875 1013.95 641.45 1017.1798828125 623.720703125 1017.9 610.7 959.749609375 627.570703125 901.4 610.65 Z"/>
</g>

<g id="Layer0_0_MEMBER_0_MEMBER_8_MEMBER_0_MEMBER_0_FILL">
<path fill="#D99250" stroke="none" d="
M 1007.85 757.75
L 967.95 757.75 969.95 867.7 964.85 890
Q 964.35 895.8 969.85 899
L 981.6 902.25
Q 990.9 916.1 1006.25 916.4
L 1007.6 918.5
Q 1011.85 922.15 1017.35 921.5 1020.75 921 1022.8 919.2 1025.25 917.1 1025.85 913.25 1020.45 911.55 1015.1 907.5 1020.45 911.55 1025.85 913.25 1025.25 917.1 1022.8 919.2 1028.25 920.5 1030.25 917.85 1031.6 916.05 1031.4 912.5 1026 910.2 1020.65 906 1026 910.2 1031.4 912.5 1031.6 916.05 1030.25 917.85 1035.85 917.15 1037.05 915.1 1038.35 912.9 1036.75 909.25 1031.6 908.4 1027.15 904.15 1031.6 908.4 1036.75 909.25 1038.35 912.9 1037.05 915.1 1040.25 912.7 1040.7 910.5 1041.15 908.65 1039.9 906.65 1035.45 905.65 1032.9 902.75 1035.45 905.65 1039.9 906.65 1041.15 908.65 1040.7 910.5 1044.75 906.8 1040.85 902.9
L 1035.25 899.55 1000.35 869.3 1007.85 757.75 Z"/>
</g>

<g id="gr_Pashface_base_0_Layer0_0_FILL">
<path fill="#DA9250" stroke="none" d="
M 31.8 -111.5
Q 21.05 -116 9.5 -117.1 -8.95 -119.2 -26.95 -114.15 -43.1 -109.7 -54.45 -98.35 -67.05 -85.8 -69.05 -68.6 -71.1 -51.25 -63.15 -35.55 -54.75 -18.9 -37.95 -10.4 -22.4 -2.45 -4.9 -1.25 13.8 -0.1 31.2 -6.95 48.95 -13.85 59.2 -29.25 68.25 -42.7 68.35 -59.05 68.45 -76.6 58.1 -90.8 47.95 -104.75 31.8 -111.5 Z"/>
</g>

<g id="gr_Pashface_base_0_Layer0_0_MEMBER_0_FILL">
<path fill="#E07749" stroke="none" d="
M -34.2 -52.55
Q -32.2 -54.5 -32.2 -57.35 -32.2 -60.15 -34.2 -62.15 -36.15 -64.1 -38.95 -64.1 -41.8 -64.1 -43.8 -62.15 -45.75 -60.15 -45.75 -57.35 -45.75 -54.5 -43.8 -52.55 -41.8 -50.55 -38.95 -50.55 -36.15 -50.55 -34.2 -52.55 Z"/>
</g>

<g id="gr_Pashface_base_0_Layer0_0_MEMBER_1_FILL">
<path fill="#E07749" stroke="none" d="
M 41.55 -50.55
Q 44.4 -50.55 46.35 -52.55 48.35 -54.5 48.35 -57.35 48.35 -60.15 46.35 -62.15 44.4 -64.1 41.55 -64.1 38.75 -64.1 36.75 -62.15 34.8 -60.15 34.8 -57.35 34.8 -54.5 36.75 -52.55 38.75 -50.55 41.55 -50.55 Z"/>
</g>

<g id="gr_pash_hair_0_Layer0_0_FILL">
<path fill="#000000" stroke="none" d="
M 39.4 -65.9
Q 36.75 -84.5 27.05 -73.35 22.3 -92.05 12.35 -78.8 -0.75 -100.55 -11.75 -78.8 -21.1 -92.05 -25.85 -73.35 -35.55 -84.5 -38.2 -65.9 -43.55 -63.9 -48.15 -60.7 -63.4 -48.95 -71.25 -22.65 -73 -15.6 -74.1 -7.5 -74.05 4.5 -67.6 -2.75 -66.2 -12.25 -63.65 -18.65 -55.9 -30.7 -45.25 -28.95 -44.55 -44.35 -35.25 -51.45 -24.9 -59.85 -12.3 -51.45 0.45 -44.55 8.85 -51.45 22.9 -63.1 34.7 -48.4 39.9 -41.3 38.8 -34.2 51.15 -39.2 61.85 -18.65 64.65 -11.9 67.05 -2.75 70.55 1.7 74.1 -6.15 72.75 -15.05 70.8 -22.65 62.75 -49.1 48.75 -60.7 44.4 -63.95 39.4 -65.9 Z"/>
</g>

<g id="gr_Pashaeye_01_0_Layer1_0_FILL">
<path fill="#FFFFFF" stroke="none" d="
M 10.55 10.7
Q 2.3 -2.65 -10 10.7 0.9 20.75 10.55 10.7 Z"/>
</g>

<g id="gr_Pashaeye_01_0_Layer1_1_MEMBER_0_FILL">
<path fill="#663333" stroke="none" d="
M 4.05 6.05
Q 2.65 4.55 0.85 4.55 -1.05 4.55 -2.3 6.05 -3.7 7.65 -3.7 9.85 -3.7 12 -2.3 13.55 -1.05 15.1 0.85 15.1 2.65 15.1 4.05 13.55 5.3 12 5.3 9.85 5.3 7.65 4.05 6.05
M 3.3 9.9
Q 3.3 11.1 2.6 12 1.85 12.95 0.8 12.95 -0.25 12.95 -1.05 12 -1.75 11.1 -1.75 9.9 -1.75 8.7 -1.05 7.75 -0.25 6.9 0.8 6.9 1.85 6.9 2.6 7.75 3.3 8.7 3.3 9.9 Z"/>

<path fill="#000000" stroke="none" d="
M 2.6 12
Q 3.3 11.1 3.3 9.9 3.3 8.7 2.6 7.75 1.85 6.9 0.8 6.9 -0.25 6.9 -1.05 7.75 -1.75 8.7 -1.75 9.9 -1.75 11.1 -1.05 12 -0.25 12.95 0.8 12.95 1.85 12.95 2.6 12 Z"/>
</g>

<g id="gr_Pashaeye_01_0_Layer1_1_MEMBER_1_FILL">
<path fill="#FFFFFF" fill-opacity="0.5019607843137255" stroke="none" d="
M 4.1 8.7
Q 4.1 7.45 3.45 6.55 2.9 5.65 2 5.65 1.05 5.65 0.45 6.55 -0.1 7.45 -0.1 8.7 -0.1 10 0.45 10.9 1.05 11.75 2 11.75 2.9 11.75 3.45 10.9 4.1 10 4.1 8.7 Z"/>
</g>

<g id="gr_pash_ears_0_Layer0_0_FILL">
<path fill="#DA9250" stroke="none" d="
M 23.8 -20
Q 6.65 -21.8 0.85 -5.3 -1.5 2.3 2.6 9.95 12.2 27.3 23.8 15.3 43 -14.85 23.8 -20
M 7.4 -1.6
Q 10.95 -5.75 18.55 -5.9 10.95 -5.75 7.4 -1.6 12.55 -0.95 13.25 4.1 12.55 -0.95 7.4 -1.6 5.7 0.45 4.95 3.5 5.7 0.45 7.4 -1.6 Z"/>
</g>

<path id="Layer0_0_MEMBER_0_MEMBER_1_MEMBER_1_MEMBER_0_1_STROKES" stroke="#C76A31" stroke-width="1" stroke-linejoin="miter" stroke-linecap="round" stroke-miterlimit="3" fill="none" d="
M 854.4126441955566 676.1181533813476
Q 849.3087089538574 692.9878906250001 851.6302978515624 707.7642066955566
M 846.1517822265624 674.3075904846191
Q 842.3862686157225 692.2253852844237 845.3275634765624 706.6539527893067"/>

<path id="Layer0_0_MEMBER_0_MEMBER_2_MEMBER_1_MEMBER_0_1_STROKES" stroke="#C76A31" stroke-width="1" stroke-linejoin="miter" stroke-linecap="round" stroke-miterlimit="3" fill="none" d="
M 1065.6309692382813 676.6549240112305
Q 1068.522085571289 694.7344467163085 1064.8837036132813 709.0032150268555
M 1057.291926574707 678.0622650146485
Q 1061.5707748413085 695.1599487304687 1058.5344848632812 709.8061447143555"/>

<path id="Layer0_0_MEMBER_0_MEMBER_5_MEMBER_0_MEMBER_0_1_STROKES" stroke="#CB792C" stroke-width="1" stroke-linejoin="round" stroke-linecap="round" fill="none" d="
M 878.375 910.5
Q 877.9408203125 908.6630859375 879.2 906.65 883.65625 905.65625 886.2 902.75
M 878.375 910.5
Q 878.8685546875 912.6888671875 882.05 915.1 880.75078125 912.88671875 882.35 909.25 887.48203125 908.4203125 891.95 904.15
M 898.45 906
Q 893.075 910.2134765625 887.7 912.5 887.49765625 916.04765625 888.825 917.825 890.8265625 920.491015625 896.275 919.175 893.8693359375 917.077734375 893.25 913.25 898.625 911.546875 904 907.5
M 882.05 915.1
Q 883.254296875 917.1509765625 888.825 917.825"/>

<path id="Layer0_0_MEMBER_0_MEMBER_8_MEMBER_0_MEMBER_0_1_STROKES" stroke="#CB792C" stroke-width="1" stroke-linejoin="round" stroke-linecap="round" fill="none" d="
M 1040.7 910.5
Q 1040.25 912.7 1037.05 915.1 1035.85 917.15 1030.25 917.85 1028.25 920.5 1022.8 919.2 1025.25 917.1 1025.85 913.25 1020.45 911.55 1015.1 907.5
M 1032.9 902.75
Q 1035.45 905.65 1039.9 906.65 1041.15 908.65 1040.7 910.5
M 1027.15 904.15
Q 1031.6 908.4 1036.75 909.25 1038.35 912.9 1037.05 915.1
M 1020.65 906
Q 1026 910.2 1031.4 912.5 1031.6 916.05 1030.25 917.85"/>

<path id="gr_Pashaeye_01_0_Layer1_0_1_STROKES" stroke="#000000" stroke-width="2" stroke-linejoin="round" stroke-linecap="round" fill="none" d="
M -10 10.7
Q 2.3 -2.65 10.55 10.7"/>

<path id="gr_Pashaeye_01_0_Layer1_1_MEMBER_0_1_STROKES" stroke="#000000" stroke-width="1" stroke-linejoin="round" stroke-linecap="round" fill="none" d="
M 0.85 15.1
Q -1.05 15.1 -2.3 13.55 -3.7 12 -3.7 9.85 -3.7 7.65 -2.3 6.05 -1.05 4.55 0.85 4.55 2.65 4.55 4.05 6.05 5.3 7.65 5.3 9.85 5.3 12 4.05 13.55 2.65 15.1 0.85 15.1 Z
M 3.3 9.9
Q 3.3 11.1 2.6 12 1.85 12.95 0.8 12.95 -0.25 12.95 -1.05 12 -1.75 11.1 -1.75 9.9 -1.75 8.7 -1.05 7.75 -0.25 6.9 0.8 6.9 1.85 6.9 2.6 7.75 3.3 8.7 3.3 9.9 Z"/>

<path id="gr_Pasha_eyebro_0_Layer0_0_1_STROKES" stroke="#000000" stroke-width="2" stroke-linejoin="round" stroke-linecap="round" fill="none" d="
M -9.7 3.05
Q 1 -6.55 9.7 -1.05"/>

<path id="gr_Pash_nose_0_Layer0_0_1_STROKES" stroke="#CC6633" stroke-width="1" stroke-linejoin="round" stroke-linecap="round" fill="none" d="
M 7.05 -4.2
Q 9 -3.55 8.75 -1.45 8.25 0.8 4.8 0.25 4.2 4 0.4 4.15
L 0.15 4.15
Q -0.05 4.15 -0.15 4.15
L -0.35 4.15
Q -4.2 4 -4.7 0.25 -8.3 0.8 -8.7 -1.45 -9.05 -3.55 -7 -4.2"/>

<path id="gr_pash_ears_0_Layer0_0_1_STROKES" stroke="#CC6633" stroke-width="1" stroke-linejoin="round" stroke-linecap="round" fill="none" d="
M 4.95 3.5
Q 5.7 0.45 7.4 -1.6 10.95 -5.75 18.55 -5.9
M 7.4 -1.6
Q 12.55 -0.95 13.25 4.1"/>

<path id="gr_pash_mouth_0_Layer0_0_1_STROKES" stroke="#CB4A1F" stroke-width="3" stroke-linejoin="round" stroke-linecap="round" fill="none" d="
M -37.65 -6.4
Q -1.05 25.7 37.7 -9.05"/>
</defs>

<g transform="matrix( 1, 0, 0, 1, 0,0) ">
<use xlink:href="#Layer0_0_MEMBER_0_FILL"/>
</g>

<g transform="matrix( 1, 0, 0, 1, 0,0) ">
<use xlink:href="#Layer0_0_MEMBER_0_MEMBER_0_FILL"/>
</g>

<g transform="matrix( 1, 0, 0, 1, 0,0) ">
<use xlink:href="#Layer0_0_MEMBER_0_MEMBER_1_MEMBER_0_FILL"/>
</g>

<g transform="matrix( -0.98480224609375, -0.1734771728515625, -0.1734771728515625, 0.98480224609375, 1800.85,159.55) ">
<use xlink:href="#Layer0_0_MEMBER_0_MEMBER_1_MEMBER_1_MEMBER_0_FILL"/>

<use xlink:href="#Layer0_0_MEMBER_0_MEMBER_1_MEMBER_1_MEMBER_0_1_STROKES" transform="matrix( -0.98486328125, -0.1734771728515625, -0.1734771728515625, 0.98486328125, 1801.25,155.25) "/>
</g>

<g transform="matrix( -0.98480224609375, -0.1734771728515625, -0.1734771728515625, 0.98480224609375, 1800.85,159.55) ">
<use xlink:href="#Layer0_0_MEMBER_0_MEMBER_1_MEMBER_1_MEMBER_1_FILL"/>
</g>

<g transform="matrix( 1, 0, 0, 1, 0,0) ">
<use xlink:href="#Layer0_0_MEMBER_0_MEMBER_2_MEMBER_0_FILL"/>
</g>

<g transform="matrix( 0.9920654296875, -0.125457763671875, 0.125457763671875, 0.9920654296875, 137.05,116.15) ">
<use xlink:href="#Layer0_0_MEMBER_0_MEMBER_2_MEMBER_1_MEMBER_0_FILL"/>

<use xlink:href="#Layer0_0_MEMBER_0_MEMBER_2_MEMBER_1_MEMBER_0_1_STROKES" transform="matrix( 0.99212646484375, 0.125457763671875, -0.125457763671875, 0.99212646484375, -121.35,-132.4) "/>
</g>

<g transform="matrix( 0.9920654296875, -0.125457763671875, 0.125457763671875, 0.9920654296875, 137.05,116.15) ">
<use xlink:href="#Layer0_0_MEMBER_0_MEMBER_2_MEMBER_1_MEMBER_1_FILL"/>
</g>

<g transform="matrix( 1, 0, 0, 1, 0,0) ">
<use xlink:href="#Layer0_0_MEMBER_0_MEMBER_3_FILL"/>
</g>

<g transform="matrix( 1, 0, 0, 1, 0,0) ">
<use xlink:href="#Layer0_0_MEMBER_0_MEMBER_4_FILL"/>
</g>

<g transform="matrix( 1, 0, 0, 1, 0,0) ">
<use xlink:href="#Layer0_0_MEMBER_0_MEMBER_5_MEMBER_0_MEMBER_0_FILL"/>

<use xlink:href="#Layer0_0_MEMBER_0_MEMBER_5_MEMBER_0_MEMBER_0_1_STROKES"/>
</g>

<g transform="matrix( 1, 0, 0, 1, 0,0) ">
<use xlink:href="#Layer0_0_MEMBER_0_MEMBER_6_FILL"/>
</g>

<g transform="matrix( 1, 0, 0, 1, 0,0) ">
<use xlink:href="#Layer0_0_MEMBER_0_MEMBER_7_FILL"/>
</g>

<g transform="matrix( 1, 0, 0, 1, 0,0) ">
<use xlink:href="#Layer0_0_MEMBER_0_MEMBER_8_MEMBER_0_MEMBER_0_FILL"/>

<use xlink:href="#Layer0_0_MEMBER_0_MEMBER_8_MEMBER_0_MEMBER_0_1_STROKES"/>
</g>

<g transform="matrix( 1.8504638671875, 0, 0, 1.8504638671875, 960.7,422.2) ">
<g transform="matrix( 1, 0, 0, 1, 0,0) ">
<g transform="matrix( 1, 0, 0, 1, 0,0) ">
<use xlink:href="#gr_Pashface_base_0_Layer0_0_FILL"/>
</g>

<g transform="matrix( 1, 0, 0, 1, 0,0) ">
<use xlink:href="#gr_Pashface_base_0_Layer0_0_MEMBER_0_FILL"/>
</g>

<g transform="matrix( 1, 0, 0, 1, 0,0) ">
<use xlink:href="#gr_Pashface_base_0_Layer0_0_MEMBER_1_FILL"/>
</g>
</g>

<g transform="matrix( 1, 0, 0, 1, 0.45,-56.1) ">
<g transform="matrix( 1, 0, 0, 1, 0,0) ">
<use xlink:href="#gr_pash_hair_0_Layer0_0_FILL"/>
</g>
</g>

<g transform="matrix( 1, 0, 0, 1, 0.35,-73.4) ">
<g transform="matrix( 1, 0, 0, 1, -18.55,-0.15) ">
<g transform="matrix( 1, 0, 0, 1, 0,0) ">
<use xlink:href="#gr_Pashaeye_01_0_Layer1_0_FILL"/>

<use xlink:href="#gr_Pashaeye_01_0_Layer1_0_1_STROKES"/>
</g>

<g transform="matrix( 1, 0, 0, 1, 0,0) ">
<use xlink:href="#gr_Pashaeye_01_0_Layer1_1_MEMBER_0_FILL"/>

<use xlink:href="#gr_Pashaeye_01_0_Layer1_1_MEMBER_0_1_STROKES"/>
</g>

<g transform="matrix( 1, 0, 0, 1, 0,0) ">
<use xlink:href="#gr_Pashaeye_01_0_Layer1_1_MEMBER_1_FILL"/>
</g>
</g>

<g transform="matrix( -1, 0, 0, 1, 18.6,-0.15) ">
<g transform="matrix( 1, 0, 0, 1, 0,0) ">
<use xlink:href="#gr_Pashaeye_01_0_Layer1_0_FILL"/>

<use xlink:href="#gr_Pashaeye_01_0_Layer1_0_1_STROKES"/>
</g>

<g transform="matrix( 1, 0, 0, 1, 0,0) ">
<use xlink:href="#gr_Pashaeye_01_0_Layer1_1_MEMBER_0_FILL"/>

<use xlink:href="#gr_Pashaeye_01_0_Layer1_1_MEMBER_0_1_STROKES"/>
</g>

<g transform="matrix( 1, 0, 0, 1, 0,0) ">
<use xlink:href="#gr_Pashaeye_01_0_Layer1_1_MEMBER_1_FILL"/>
</g>
</g>

<g transform="matrix( 1, 0, 0, 1, -18.75,-12.55) ">
<g transform="matrix( 1, 0, 0, 1, 0,0) ">
<use xlink:href="#gr_Pasha_eyebro_0_Layer0_0_1_STROKES"/>
</g>
</g>

<g transform="matrix( -1, 0, 0, 1, 18.8,-12.55) ">
<g transform="matrix( 1, 0, 0, 1, 0,0) ">
<use xlink:href="#gr_Pasha_eyebro_0_Layer0_0_1_STROKES"/>
</g>
</g>
</g>

<g transform="matrix( 1, 0, 0, 1, 0.05,-47.6) ">
<g transform="matrix( 1, 0, 0, 1, 0,0) ">
<use xlink:href="#gr_Pash_nose_0_Layer0_0_1_STROKES"/>
</g>
</g>

<g transform="matrix( 1, 0, 0, 1, 62.25,-54.95) ">
<g transform="matrix( 1, 0, 0, 1, 0,0) ">
<use xlink:href="#gr_pash_ears_0_Layer0_0_FILL"/>

<use xlink:href="#gr_pash_ears_0_Layer0_0_1_STROKES"/>
</g>
</g>

<g transform="matrix( -1, 0, 0, 1, -61.5,-54.95) ">
<g transform="matrix( 1, 0, 0, 1, 0,0) ">
<use xlink:href="#gr_pash_ears_0_Layer0_0_FILL"/>

<use xlink:href="#gr_pash_ears_0_Layer0_0_1_STROKES"/>
</g>
</g>

<g transform="matrix( 1, 0, 0, 1, 1.3,-37.7) ">
<g transform="matrix( 1, 0, 0, 1, 0,0) ">
<use xlink:href="#gr_pash_mouth_0_Layer0_0_1_STROKES"/>
</g>
</g>
</g>
</svg>
